<?xml version="1.0" encoding="utf-8"?><svg viewBox="0 0 44 44" xmlns="http://www.w3.org/2000/svg" xmlns:xlink="http://www.w3.org/1999/xlink"><style>:root>svg{display:none}:root>svg:target{display:block}</style><svg viewBox="0 0 24 24" id="ic_close" xmlns="http://www.w3.org/2000/svg"><path data-name="Rectangle 31" fill="none" d="M0 0h24v24H0z"/><path data-name="Union 3" d="M11.973 13.707l-9.241 9.241L1 21.215l9.241-9.241-9.187-9.187 1.732-1.733 9.188 9.188 9.241-9.241 1.732 1.733-9.241 9.241L23 21.269l-1.732 1.733z"/></svg><svg viewBox="0 0 14 14" id="ic_dropdown-arrow" xmlns="http://www.w3.org/2000/svg"><path data-name="Rectangle 35" fill="none" d="M0 0h14v14H0z"/><path data-name="Path 26" d="M11.69 5L7 9.69 2.31 5z"/></svg><svg viewBox="0 0 44 44" id="ic_fssp" xmlns="http://www.w3.org/2000/svg"><path data-name="Rectangle 33" fill="none" d="M0 0h44v44H0z"/><path data-name="Path 32" d="M22.6 36.802a1.2 1.2 0 010 2.4H4.2a1.2 1.2 0 010-2.4h1.2a2.418 2.418 0 01.743-1.772 2.449 2.449 0 011.714-.685h11.028a2.349 2.349 0 012.458 2.457zM18.2 5.488a1.071 1.071 0 011.714-.115L30.2 14.002a1.071 1.071 0 01.114 1.714l-.857.971a1.053 1.053 0 01-1.714.172l-1.829-1.543c-.342-.266-.629-.247-.857.057a.536.536 0 00.057.857 1.075 1.075 0 01.114 1.715l-2.343 2.8 5.372 4.514a2.487 2.487 0 013.486-.286l9.657 8.343a1.1 1.1 0 01.172 1.714l-3.143 3.772a1.1 1.1 0 01-1.715.171L27 30.573a2.6 2.6 0 01-.857-1.657 2.426 2.426 0 01.571-1.771l-5.371-4.515L19 25.43a1.074 1.074 0 01-1.715.114.558.558 0 00-.856.114.536.536 0 00.057.857l1.885 1.543a1.074 1.074 0 01.115 1.714l-.857 1.029a1.1 1.1 0 01-1.715.171L5.686 22.344a1.112 1.112 0 01-.172-1.772l.857-.971a1.1 1.1 0 011.715-.171l1.828 1.6a.518.518 0 00.857-.114.537.537 0 00-.057-.857 1.069 1.069 0 01-.114-1.714l6.228-7.486a1.076 1.076 0 011.715-.115.518.518 0 00.857-.114.538.538 0 00-.057-.857L17.457 8.23a1.073 1.073 0 01-.114-1.714z"/></svg><svg viewBox="0 0 44 44" id="ic_gibdd1" xmlns="http://www.w3.org/2000/svg"><path data-name="Rectangle 33" fill="none" d="M0 0h44v44H0z"/><path data-name="Path 25" d="M27.986 38.132c3.9-.066 7.6.429 8.833.962-1.22.278-4.818-.233-8.833-.962m-7.569-19.6l5.049 5.049-4.039 4.038-5.048-5.048zm8.771-8.771l5.049 5.048-4.039 4.039L25.15 13.8zm-6.347 27.372a617.568 617.568 0 01-5.3-1.105c-1.806-.382-3.324-.7-4.578-.953l3.209-3.209c.075 0 .149.022.224.022a4.268 4.268 0 003.029-1.255l1.34-1.34 1.169-1.169 4.038-4.039 4.733-4.732 4.039-4.039 1.036-1.037 1.967-1.966a4.284 4.284 0 00-6.058-6.058l-1.967 1.966-1.036 1.037-4.039 4.039-4.733 4.732-4.038 4.039-1.169 1.169-1.34 1.34a4.257 4.257 0 00-1.234 3.253l-5.294 5.294a2.856 2.856 0 104.039 4.039l.869-.87c1.529.3 3.481.707 5.5 1.134q1.189.252 2.3.485c-7.16 2-10.508 1.491-11.367.846-.233-.174-.233-.31-.233-.368a.714.714 0 00-1.428 0 1.841 1.841 0 00.8 1.512 6.544 6.544 0 003.795.856 36.27 36.27 0 009.651-1.712 18.721 18.721 0 012.029-.466c9.153 1.851 13.889 2.483 15.174 1.546a1.146 1.146 0 00.477-1.474c-.883-1.788-9.582-2.483-15.609-1.517"/></svg><svg viewBox="0 0 44 44" id="ic_help" xmlns="http://www.w3.org/2000/svg"><g data-name="Ellipse 2" transform="translate(4 4)" fill="transparent" stroke-width="3"><circle cx="18" cy="18" r="18"/><circle cx="18" cy="18" r="16.5" fill="none"/></g><path data-name="Path 1" d="M19.771 24.374V23.6a2.892 2.892 0 01.362-1.5 3.8 3.8 0 011.285-1.19 4.827 4.827 0 001.055-.833 1.262 1.262 0 00.321-.851.684.684 0 00-.344-.6 1.629 1.629 0 00-.9-.222 7.048 7.048 0 00-3.2.969l-1.25-2.467a9.37 9.37 0 014.707-1.285 5.069 5.069 0 013.168.887 2.889 2.889 0 011.15 2.417 3.448 3.448 0 01-.511 1.9 5.211 5.211 0 01-1.634 1.516 6.32 6.32 0 00-1.19.9 1.014 1.014 0 00-.24.674v.462zm-.389 3.168a1.673 1.673 0 01.484-1.285 2.017 2.017 0 011.426-.453 1.948 1.948 0 011.389.457 1.676 1.676 0 01.484 1.281 1.63 1.63 0 01-.5 1.276 1.973 1.973 0 01-1.371.453 2.046 2.046 0 01-1.4-.448 1.619 1.619 0 01-.513-1.281z"/><path data-name="Rectangle 12" d="M0 0h44v44H0z"/></svg><svg viewBox="0 0 44 44" id="ic_nalog" xmlns="http://www.w3.org/2000/svg"><path data-name="Rectangle 33" fill="none" d="M0 0h44v44H0z"/><path data-name="Path 33" d="M36.143 25.2l-1.086-.515A14.914 14.914 0 0021 5.143 14.926 14.926 0 006.143 20a14.453 14.453 0 003.771 9.942 14.3 14.3 0 009.372 4.858v1.142A15.949 15.949 0 1137 20a15.986 15.986 0 01-.857 5.2zM11.286 10.342a13.159 13.159 0 00-4 9.658 13.374 13.374 0 003.429 9.143 13.2 13.2 0 008.571 4.514v-7.029h-2.114c-.267 0-.4-.151-.4-.457v-.8a.411.411 0 01.228-.4q.515-.171 1.029-.4a4.349 4.349 0 01.743-.172v-9.142h-.057q-.63.057-1.258.057h-.571a.366.366 0 01-.4-.343l-.114-.743a.449.449 0 01.343-.457 17.107 17.107 0 002.171-.686A11.521 11.521 0 0021.057 12a.508.508 0 01.229-.058h1.257a.354.354 0 01.4.4V18.8l11.086 5.371A12.771 12.771 0 0034.715 20a13.068 13.068 0 00-4.058-9.658c-2.666-2.7-4.814-4.057-9.657-4.057s-7.422 1.948-9.714 4.057zm10.8 29.429V21.485l16.343 7.943a.462.462 0 00.743-.228.521.521 0 00-.229-.8l-17.2-8.285a.428.428 0 00-.514 0 .516.516 0 00-.286.457v19.2a.572.572 0 001.143 0zm1.143-2.743a14.525 14.525 0 007.486-2.285 14.321 14.321 0 004.971-5.372l-1.029-.514a12.447 12.447 0 01-11.428 7.028z"/></svg><svg viewBox="0 0 44 44" id="ic_rr" xmlns="http://www.w3.org/2000/svg"><path data-name="Rectangle 33" fill="none" d="M0 0h44v44H0z"/><path data-name="Path 34" d="M38.618 16.971a.547.547 0 01.171.629l-9.257 22.914a.487.487 0 01-.515.342.506.506 0 01-.228-.057l-12.171-4.457a.51.51 0 01-.343-.285.6.6 0 010-.515l1.085-2.171-11.028-5.257a.508.508 0 01-.286-.343.407.407 0 01.058-.457l3.428-6.057 9.6-16.972A.613.613 0 0119.704 4l12.171 1.257h.057a.162.162 0 00.114.057h.058v.057h.057v.057h.057l.057.057a.05.05 0 00.057.057v.115l.057.057v.228a.051.051 0 01-.057.058v.057l-1.543 3.257zm-26.629 5.885l-4.514 4.515.857.4 4.571-4.571zm-3.2 2l2.286-2.342-.8-.286zm.343 3.315l.857.4 4.743-4.743-.914-.343zm1.657.8l.857.4 4.857-4.914-.914-.286zm1.657.8l.857.4 5.029-5.028-.915-.344zm1.658.8l.856.4 5.2-5.2-.915-.343zm3.256-20.8l-1.656 2.914 7.142-7.2-1.085-.114zm-1.6 21.543l.857.4 5.314-5.315-.915-.342zm9.314-25.6L23.988 5.6l-7.714 7.714.971.286zm-7.658 26.4l.858.4 5.486-5.486-.915-.286zm8.172-4.4l-.914-.343-6 6-1.086 2.114.115.057zm1.714-21.772l-1.085-.114-8.057 8.057.971.229zm.057 22.4L26.445 28l-7.828 7.885.914.343zM20.674 5.257l-.743-.057-1.029 1.771zm8.857.914l-1.086-.114-8.342 8.342.971.286zm-.343 22.8l-.914-.343-7.886 7.886.914.342zm1.486-22.686l-8.686 8.629.971.286 7.144-7.143.856-1.715zm.285 23.315l-.914-.286-7.828 7.886.857.285zm-1.943-19.2l-5.085 5.086.971.229 2.972-2.972zm3.429 19.772l-.571-.229-7.886 7.886.914.343 7.258-7.315zm5.143-12.686L30.274 10.4l-2.915 6.057 1.657.458a.513.513 0 01.343.286.606.606 0 010 .514l-4.171 8.628 7.714 2.743zM26.674 38.8l3.828-3.828.857-2.057-5.6 5.6zm.114-23.714l-.971.915.457.114zm2.915 21.943l-2.115 2.115 1.086.4z"/></svg><svg viewBox="0 0 24 24" id="ic_search" xmlns="http://www.w3.org/2000/svg"><path data-name="Rectangle 31" fill="none" d="M0 0h24v24H0z"/><path data-name="Union 2" d="M20.152 22.529l-3.564-3.565q-.054-.054-.1-.111a9.176 9.176 0 01-5.245 1.629 9.18 9.18 0 01-6.534-2.706 9.18 9.18 0 01-2.707-6.535 9.177 9.177 0 012.707-6.534A9.177 9.177 0 0111.243 2a9.183 9.183 0 016.535 2.706 9.183 9.183 0 012.706 6.535 9.176 9.176 0 01-1.63 5.245q.057.048.111.1l3.564 3.565a1.68 1.68 0 010 2.376 1.675 1.675 0 01-1.188.492 1.675 1.675 0 01-1.189-.49zM6.489 6.489a6.728 6.728 0 000 9.5 6.728 6.728 0 009.5 0 6.728 6.728 0 000-9.5 6.7 6.7 0 00-4.753-1.966 6.7 6.7 0 00-4.747 1.966z"/></svg></svg>